<svg width="48" height="48" viewBox="0 0 48 48" fill="none" xmlns="http://www.w3.org/2000/svg">
<rect width="48" height="48" rx="8" fill="#353739"/>
<path d="M25.5 20H24V25L28.28 27.54L29 26.33L25.5 24.25V20ZM25 15C22.6131 15 20.3239 15.9482 18.636 17.636C16.9482 19.3239 16 21.6131 16 24H13L16.96 28.03L21 24H18C18 22.1435 18.7375 20.363 20.0503 19.0503C21.363 17.7375 23.1435 17 25 17C26.8565 17 28.637 17.7375 29.9497 19.0503C31.2625 20.363 32 22.1435 32 24C32 25.8565 31.2625 27.637 29.9497 28.9497C28.637 30.2625 26.8565 31 25 31C23.07 31 21.32 30.21 20.06 28.94L18.64 30.36C19.4715 31.2006 20.4622 31.8671 21.5542 32.3203C22.6462 32.7736 23.8176 33.0047 25 33C27.3869 33 29.6761 32.0518 31.364 30.364C33.0518 28.6761 34 26.3869 34 24C34 21.6131 33.0518 19.3239 31.364 17.636C29.6761 15.9482 27.3869 15 25 15Z" fill="#7F7F7F"/>
</svg>
